PathFileType	4	(X/Y/Z)	C:\Users\Basilio\Documents\Thesis Gigler\squatting_fais\c3dfiles\073\SLS_back_pre5\markers_experimental.trc
DataRate	CameraRate	NumFrames	NumMarkers	Units	OrigDataRate	OrigDataStartFrame	OrigNumFrames
200.000000	200.000000	4	61	mm	200.000000	384	1539
Frame#	Time	FHD			LBHD			RBHD			C7			T10			CLAV			LSHO			LUUPA			LMUPA			LDUPA			LLEP			LMEP			LRAD			LUL			LRFIN			RSHO			RUPA1			RMUPA			RDUPA			RLEP			RMEP			RUL			RUFIN			LASI			RASI			USACR			LSACR			RSACR			LTHI1			LTHI2			LTHI3			LTHI4			LLFC			LTIB1			LTIB2			LTIB3			LTIB4			LLMAL			LMMAL			LHEE			LMT1			LMT2			LMT5			RTHI			RTHI2			RTHI3			RTHI4			RLFC			RMFC			RTIB1			RTIB2			RTIB3			RTIB4			RLMAL			RMMAL			RHEE			RMT1			RMT2			RMT5			LMFC			RRAD			
		X1	Y1	Z1	X2	Y2	Z2	X3	Y3	Z3	X4	Y4	Z4	X5	Y5	Z5	X6	Y6	Z6	X7	Y7	Z7	X8	Y8	Z8	X9	Y9	Z9	X10	Y10	Z10	X11	Y11	Z11	X12	Y12	Z12	X13	Y13	Z13	X14	Y14	Z14	X15	Y15	Z15	X16	Y16	Z16	X17	Y17	Z17	X18	Y18	Z18	X19	Y19	Z19	X20	Y20	Z20	X21	Y21	Z21	X22	Y22	Z22	X23	Y23	Z23	X24	Y24	Z24	X25	Y25	Z25	X26	Y26	Z26	X27	Y27	Z27	X28	Y28	Z28	X29	Y29	Z29	X30	Y30	Z30	X31	Y31	Z31	X32	Y32	Z32	X33	Y33	Z33	X34	Y34	Z34	X35	Y35	Z35	X36	Y36	Z36	X37	Y37	Z37	X38	Y38	Z38	X39	Y39	Z39	X40	Y40	Z40	X41	Y41	Z41	X42	Y42	Z42	X43	Y43	Z43	X44	Y44	Z44	X45	Y45	Z45	X46	Y46	Z46	X47	Y47	Z47	X48	Y48	Z48	X49	Y49	Z49	X50	Y50	Z50	X51	Y51	Z51	X52	Y52	Z52	X53	Y53	Z53	X54	Y54	Z54	X55	Y55	Z55	X56	Y56	Z56	X57	Y57	Z57	X58	Y58	Z58	X59	Y59	Z59	X60	Y60	Z60	X61	Y61	Z61	

385	1.92	-93.83872985839845	1622.09814453125	-747.6746215820314	-229.6220397949219	1599.27490234375	-770.6929321289065	-251.3812103271485	1579.568969726563	-637.1506347656251	-289.6138610839844	1490.678588867188	-702.5721435546876	-411.206512451172	1178.8232421875	-729.6932983398439	-183.0350799560547	1385.949096679688	-705.9146118164064	-204.9769897460938	1452.145385742188	-841.2858886718752	-129.3674011230469	1380.042724609375	-940.9813232421877	-87.23471069335939	1396.029418945313	-917.973571777344	-68.43750762939455	1350.10546875	-953.8861083984377	34.31790924072266	1320.406494140625	-959.3186035156252	27.69115638732911	1262.728759765625	-919.0013427734377	288.5657348632813	1337.082397460938	-833.5499267578127	296.1344299316407	1337.0791015625	-907.7416992187502	371.3874511718751	1343.000244140625	-822.5777587890627	-191.9034881591797	1427.385498046875	-562.5828247070314	-111.0295791625977	1318.668701171875	-465.8371582031251	-70.28466033935548	1338.988403320313	-481.1577453613282	-49.78928756713869	1286.577026367188	-460.5074462890626	41.24509048461915	1265.300903320313	-460.7004699707032	35.53041458129884	1213.608154296875	-525.9072875976564	300.9091796875001	1308.296508789063	-510.5074157714845	379.6853027343751	1327.362426757813	-589.7037353515626	-292.1302185058594	983.8955078125002	-862.514343261719	-290.0158691406251	979.4689941406252	-616.2239990234376	-456.9913940429689	1082.023193359375	-732.8360595703126	-474.2036743164064	1056.595947265625	-761.1535644531251	-478.2646484375001	1054.588623046875	-704.4771118164064	-334.0498352050782	665.8587036132814	-916.2959594726565	-298.3428039550782	589.8710327148439	-899.1075439453127	-258.5931701660157	593.5289306640626	-870.670104980469	-329.0334472656251	538.5839843750001	-891.3811645507815	-341.7565917968751	493.7149963378907	-891.6790771484377	-497.7350158691407	387.2220153808595	-846.736511230469	-550.1392211914064	432.629364013672	-899.9042968750002	-547.3173217773439	393.4822082519532	-879.6339111328127	-623.4791870117189	374.0584716796876	-847.7281494140627	-751.7186279296876	405.4536437988282	-876.4033203125002	-725.8831176757814	400.3470458984376	-791.2561035156252	-787.7364501953127	462.1091308593751	-834.9085693359377	-773.2500610351565	240.9504089355469	-789.9813232421877	-773.7691650390627	237.2351226806641	-829.2437744140627	-802.732604980469	267.9030761718751	-881.0831298828127	-341.0648193359376	760.9068603515626	-550.8251342773439	-291.7603454589844	716.6160278320314	-555.5196533203126	-260.1138610839844	726.2426147460939	-560.9459228515626	-298.2815551757813	636.5494995117189	-581.0267944335939	-253.7068481445313	497.1244506835939	-606.7125854492189	-251.0373840332032	499.5011291503907	-735.5400390625001	-241.8494262695313	341.7470397949219	-712.7146606445314	-276.7534179687501	258.8506469726563	-653.1732177734376	-256.3589477539063	257.4787597656251	-697.0855712890626	-285.3014526367188	221.3998260498047	-732.1039428710939	-357.2474670410157	98.66267395019534	-687.8080444335939	-350.6910705566407	128.3140258789063	-772.9795532226565	-430.573944091797	81.8203582763672	-743.6860351562501	-206.6826934814454	54.87449645996095	-760.8108520507814	-206.0726318359376	51.26571655273439	-720.3798828125001	-248.5261688232422	34.71979904174805	-670.5615234375001	-351.7679748535157	490.446258544922	-756.8158569335939	nan	nan	nan	
386	1.925	-92.93981170654298	1621.32666015625	-747.7462158203126	-228.9536132812501	1598.567504882813	-770.6248168945315	-250.8171081542969	1578.782836914063	-637.1795043945314	-288.9914245605469	1490.007080078125	-702.5119628906251	-411.1208496093751	1178.428833007813	-729.7017822265626	-182.1979675292969	1385.31201171875	-705.7687988281251	-204.3465118408204	1451.380126953125	-841.2510375976565	-129.0432891845703	1379.30908203125	-941.013122558594	-86.81316375732423	1395.18115234375	-918.0173339843752	-68.18173980712892	1349.374755859375	-954.010437011719	34.65909957885743	1319.575561523438	-959.3699340820315	28.11532783508301	1261.866088867188	-919.2144775390627	288.9829711914063	1335.865478515625	-833.7282714843752	296.6475524902344	1336.138793945313	-907.8151855468752	371.7920227050782	1341.806640625	-822.6597900390627	-191.301254272461	1426.777221679688	-562.6477661132814	-110.5300750732422	1318.021850585938	-465.7797851562501	-69.75814056396486	1338.33837890625	-481.1242065429689	-49.27673339843751	1285.88232421875	-460.4541015625001	41.75286102294923	1264.610229492188	-460.5762634277345	36.00168228149415	1213.070190429688	-525.7766113281251	301.4393615722657	1307.6484375	-510.5125732421876	380.2658081054688	1326.667846679688	-589.5775146484376	-292.4858093261719	983.4058227539065	-862.657653808594	-290.2557678222657	978.8699340820315	-616.4086914062501	-457.1230468750001	1081.657470703125	-732.8519287109376	-474.3314819335939	1056.308349609375	-761.2490844726564	-478.4371337890626	1054.304565429688	-704.5559692382814	-334.9698486328126	665.1260375976564	-916.6653442382815	-299.3453979492188	589.4135742187501	-899.193298339844	-259.4899597167969	592.7932128906251	-870.799255371094	-329.9595336914063	538.0141601562501	-891.4176025390627	-342.7442626953126	493.1807556152345	-891.8043212890627	-498.8864746093751	387.0375976562501	-846.7824707031252	-551.2007446289064	432.3988342285157	-900.0006103515627	-548.5769042968751	393.4700012207032	-879.7763671875002	-624.7306518554689	374.0509948730469	-847.7005004882815	-752.9749145507814	405.589813232422	-876.6316528320315	-727.1538085937501	400.4482727050782	-791.450622558594	-788.890075683594	462.3938598632814	-835.0709228515627	-774.6015625000002	241.1888427734376	-789.9664306640627	-775.0626220703127	237.5352630615235	-829.4129638671877	-804.225769042969	268.1997680664063	-881.164245605469	-341.0197143554688	760.5159912109376	-550.7570800781251	-291.5296630859376	716.3509521484376	-555.4005126953126	-259.9725341796876	725.9661254882814	-560.7906494140626	-297.9593200683594	636.1882324218751	-580.8870239257814	-253.1426391601563	496.9377746582032	-606.5522460937501	-250.3803100585938	499.2799377441407	-735.3971557617189	-241.5417022705079	341.5929565429688	-712.6400756835939	-276.6308898925782	258.6346740722657	-653.1272583007814	-256.1354370117188	257.3729553222657	-697.0193481445314	-285.1250915527344	221.310531616211	-732.0051269531251	-357.2048950195313	98.6040954589844	-687.7603149414064	-350.6484680175782	128.3727264404297	-772.933288574219	-430.5936889648439	81.82179260253908	-743.6644897460939	-206.7000579833985	54.88713836669923	-760.8098754882814	-206.0681152343751	51.23401260375978	-720.4599609375001	-248.5585174560547	34.70112609863282	-670.5553588867189	-352.6534729003907	489.9216308593751	-756.9760131835939	nan	nan	nan	
387	1.93	-92.12530517578126	1620.553466796875	-747.6681518554689	-228.3603820800782	1597.863403320313	-770.577575683594	-250.3833923339844	1578.247314453125	-637.3795776367189	-288.4007873535157	1489.408447265625	-702.3923950195314	-411.0098266601564	1178.057861328125	-729.7994384765626	-181.7236328125	1384.621337890625	-705.8325195312501	-203.7313537597657	1450.776245117188	-841.1438598632815	-128.5799407958985	1378.5185546875	-941.0098876953127	-86.39852142333986	1394.418090820313	-918.0859985351565	-67.80606079101564	1348.594848632813	-954.0380859375002	34.92550659179688	1318.819702148438	-959.4583129882815	28.591703414917	1261.092407226563	-919.320739746094	289.3991088867188	1334.8828125	-833.7288818359377	296.9553833007813	1335.013427734375	-907.8686523437502	372.1994934082032	1340.764038085938	-822.6912231445315	-190.7789611816407	1425.984375	-562.6249389648439	-109.9288787841797	1317.388427734375	-465.7379455566407	-69.32320404052736	1337.7939453125	-480.4393615722657	-48.66713333129884	1285.282958984375	-460.4716796875001	42.37207031250001	1263.905517578125	-460.4690551757814	36.65568542480469	1212.373901367188	-525.7182006835939	301.9770812988282	1306.930786132813	-510.3920898437501	380.8253479003907	1325.987548828125	-589.4962158203126	-292.7381591796876	982.751403808594	-862.853942871094	-290.3801574707032	978.3714599609377	-616.5913696289064	-457.1363525390626	1081.275634765625	-732.8984375000001	-474.607879638672	1056.084106445313	-761.3142089843751	-478.4660949707032	1054.041381835938	-704.5907592773439	-335.5195617675782	664.8505249023439	-916.500915527344	-300.0828857421876	588.7717895507814	-899.171813964844	-260.3339843750001	592.2061157226564	-870.8530883789065	-330.7873840332032	537.5324096679689	-891.5825195312502	-343.6716613769532	492.6218261718751	-891.8419189453127	-500.0147705078126	386.6394348144532	-847.1053466796877	-552.2029418945314	432.214324951172	-900.0855102539065	-549.7769775390626	393.405975341797	-880.0933227539065	-625.9452514648439	373.9877624511719	-847.9468994140627	-754.0040893554689	405.7144470214845	-876.8300781250002	-728.3450927734376	400.5548706054689	-791.6225585937502	-789.932556152344	462.6074829101564	-835.204528808594	-775.9824218750002	241.3753814697266	-790.1361083984377	-776.6807861328127	237.8670501708985	-829.4946899414065	-805.6149902343752	268.4640808105469	-881.2951660156252	-340.9447021484376	760.1160888671876	-550.6758422851564	-291.3462524414063	716.0794677734376	-555.3076171875001	-259.8839416503907	725.7117309570314	-560.6411743164064	-297.6855773925782	635.8958740234376	-580.7949829101564	-252.6858367919922	496.7397460937501	-606.4197387695314	-249.8041381835938	498.9704895019532	-735.2238769531251	-241.1513061523438	341.4581604003907	-712.4418334960939	-276.3912048339844	258.5782165527344	-653.0261230468751	-255.946273803711	257.2549438476563	-696.8770751953126	-284.7469177246094	221.1915283203126	-731.9130859375001	-357.1991271972657	98.57132720947268	-687.7162475585939	-350.5407714843751	128.3616943359375	-772.8673095703127	-430.598846435547	81.84590911865236	-743.6587524414064	-206.6887969970704	54.89175033569337	-760.7852783203126	-206.0531158447266	51.20075607299806	-720.4721679687501	-248.5281066894532	34.64599609375001	-670.5505981445314	-353.6073303222657	489.378875732422	-757.0823364257814	nan	nan	nan	
388	1.935	-91.47735595703126	1619.80078125	-747.6177978515626	-227.8343353271485	1597.039672851563	-770.6190185546877	-249.7825469970704	1577.496826171875	-637.3867187500001	-287.8052062988282	1488.779907226563	-702.4180908203126	-410.9368896484376	1177.702514648438	-729.8326416015626	-181.2679901123047	1383.802490234375	-705.8189697265626	-203.3026885986329	1450.127197265625	-841.1638183593752	-128.0978393554688	1377.869018554688	-940.9979248046877	-85.98983764648439	1393.7734375	-918.0388183593752	-67.65885162353517	1347.799926757813	-954.142761230469	35.35572052001954	1318.030395507813	-959.4359130859377	28.95197105407716	1260.353149414063	-919.413757324219	289.7761230468751	1333.886596679688	-833.7854614257815	297.3460388183594	1334.105712890625	-907.9281005859377	372.5816955566407	1339.7548828125	-822.7744140625002	-190.2084045410157	1425.206787109375	-562.6241455078126	-109.3874282836914	1316.682006835938	-465.8035278320314	-68.70740509033205	1337.144775390625	-480.5301818847657	-48.12727355957033	1284.619995117188	-460.469696044922	42.94550704956055	1263.212768554688	-460.4508361816407	37.29423904418946	1211.524536132813	-525.7885742187501	302.5100708007813	1306.205078125	-510.3142395019532	381.3505249023438	1325.26904296875	-589.5017700195314	-293.0712280273438	982.194030761719	-863.032897949219	-290.5845336914063	977.7784423828127	-616.7488403320314	-457.2391357421876	1080.952758789063	-732.9364624023439	-474.740203857422	1055.741088867188	-761.3832397460939	-478.5896606445314	1053.706298828125	-704.6428222656251	-336.3121337890626	663.9511718750001	-916.907165527344	-300.9291076660157	588.2750854492189	-899.3403930664065	-261.0334472656251	591.5786132812501	-870.9116210937502	-331.6488647460938	536.9348144531251	-891.676696777344	-344.5332641601563	492.1720581054689	-891.9993896484377	-501.2115173339845	386.3941650390626	-847.0208740234377	-553.1263427734376	432.036346435547	-900.1898193359377	-550.7585449218751	393.0393371582032	-880.0720825195315	-627.0580444335939	373.9403381347657	-848.159851074219	-755.1272583007814	405.8685302734376	-876.9187011718752	-729.3834228515626	400.696502685547	-791.6474609375002	-790.9356079101565	462.8407287597657	-835.278747558594	-777.526550292969	241.5551300048829	-790.2088012695315	-778.0167236328127	237.899887084961	-829.8440551757815	-806.8984375000002	268.6345520019532	-881.4659423828127	-340.8983459472657	759.7214965820314	-550.6494140625001	-291.1805114746094	715.7758178710939	-555.2107543945314	-259.7767028808594	725.4289550781251	-560.4982910156251	-297.4078063964844	635.5710449218751	-580.7560424804689	-252.3069763183594	496.5534973144532	-606.2702026367189	-249.2081146240235	498.732147216797	-735.0632324218751	-240.7317810058594	341.3348083496094	-712.2437744140626	-276.2970581054688	258.3865051269532	-652.9300537109376	-255.6525268554688	257.1288146972657	-696.7601928710939	-284.8072204589844	221.1818389892579	-731.7918701171876	-357.1595153808594	98.56352233886722	-687.6891479492189	-350.5476074218751	128.4316711425782	-772.8544921875002	-430.6224060058595	81.87918090820314	-743.6348876953126	-206.6815643310547	54.89410781860353	-760.7404785156251	-206.0519104003907	51.18640136718751	-720.3884277343751	-248.5306243896485	34.65116119384766	-670.5242919921876	-354.5812988281251	488.8657836914064	-757.2407836914064	nan	nan	nan	
